<svg height="503pt" viewBox="-33 0 503 503.907" width="503pt" xmlns="http://www.w3.org/2000/svg"><path d="M201.5 198.953V148.56h-76.098v50.394C54.141 218.047 8.066 287 17.695 360.148c9.63 73.145 71.98 127.825 145.758 127.825s136.125-54.68 145.758-127.825C318.84 287 272.766 218.047 201.504 198.953zm0 0" fill="#4370ff"/><path d="M94.14 340.984h-32c.063 55.926 45.387 101.25 101.313 101.309v-32c-38.262-.04-69.27-31.047-69.312-69.309zm228.989-152.328h32v57.883h-32zm-81.977-56.093h57.883v32h-57.883zm138.075 0h57.882v32h-57.882zm0 0"/><path d="M323.094 148.559v-44.72c0-39.675-32.164-71.839-71.84-71.839s-71.84 32.164-71.84 71.84v28.719h22.078c8.84 0 16.004 7.164 16 16v38.562c65.242 23.024 108.895 84.656 108.961 153.84h-32c-.047-59.29-39.863-111.176-97.121-126.563a16.013 16.013 0 01-11.84-15.437v-34.402h-44.078v34.402a16.009 16.009 0 01-11.84 15.437 131.37 131.37 0 00-20.16 7.282v-73.121c-.004-8.836 7.16-16 16-16h22v-28.72C147.414 46.493 193.902 0 251.254 0c57.348 0 103.84 46.492 103.84 103.84v44.719zm.16 224.401c-14.629 72.954-76.809 126.743-151.106 130.716-74.3 3.972-141.859-42.88-164.187-113.856-22.324-70.98 6.254-148.066 69.453-187.34v39.758c-42.57 37.032-56.64 97.16-34.918 149.235 21.723 52.07 74.352 84.375 130.617 80.175 56.266-4.203 103.512-43.968 117.262-98.687zm0 0"/></svg>